<?xml version="1.0" encoding="UTF-8"?>
<svg id="_Слой_2" data-name="Слой 2" xmlns="http://www.w3.org/2000/svg" viewBox="0 0 397.44 126.28">
  <defs>
    <style>
      .cls-1 {
        fill: #b28661;
      }
    </style>
  </defs>
  <g id="_Слой_1-2" data-name="Слой 1">
    <g>
      <path class="cls-1" d="M0,0V126.28H95.5V0H0ZM92.33,120.84L49.06,63.14,92.33,5.08V120.84Zm-1.17-117.67L47.75,61.4,4.08,3.17H91.16ZM3.17,5.44L45.67,62.1H3.17V5.44Zm0,117.67v-58.93H47.23l44.19,58.93H3.17Z"/>
      <g>
        <path class="cls-1" d="M140.74,36.91h-1.89l-15.56-23.71h3.21l13.3,20.4,13.25-20.4h3.21l-15.51,23.71Zm-2.42-1.1h2.89v14.19h-2.89v-14.19Z"/>
        <path class="cls-1" d="M170.23,16.3h.21l-15.56,33.7h-3.05l17.08-36.8h2.84l17.14,36.8h-3.1l-15.56-33.7Zm11.57,24.44h-23.03l1-2.63h21.18l.84,2.63Z"/>
        <path class="cls-1" d="M195,50V13.2h2.47l25.29,31.75V13.2h2.89V50h-2.37l-25.39-31.86v31.86h-2.89Z"/>
        <path class="cls-1" d="M253.03,50.47c-3.65,0-6.9-.81-9.75-2.42-2.86-1.61-5.1-3.86-6.73-6.73-1.63-2.87-2.44-6.1-2.44-9.67s.81-6.85,2.42-9.73c1.61-2.87,3.85-5.13,6.73-6.75,2.87-1.63,6.1-2.45,9.67-2.45,2.63,0,5.07,.45,7.33,1.34s4.28,2.2,6.07,3.92l-1.89,1.79c-1.58-1.47-3.31-2.6-5.2-3.39-1.89-.79-3.96-1.18-6.2-1.18-3.08,0-5.84,.7-8.28,2.1-2.44,1.4-4.34,3.35-5.7,5.83-1.37,2.49-2.05,5.31-2.05,8.46s.68,5.98,2.05,8.49c1.37,2.51,3.28,4.46,5.73,5.86,2.45,1.4,5.24,2.1,8.36,2.1,2.24,0,4.28-.37,6.12-1.1s3.5-1.74,4.97-3v-12.41h2.68v13.72c-1.79,1.65-3.88,2.93-6.28,3.84-2.4,.91-4.93,1.37-7.6,1.37Z"/>
        <path class="cls-1" d="M275.38,50V13.2h2.89V50h-2.89Z"/>
        <path class="cls-1" d="M130.44,76.28v36.8h-2.89v-36.8h2.89Zm-.26,28.7l-.16-3.52,23.24-25.18h3.63l-26.71,28.7Zm10.09-11.41l2.05-2.05,15.51,21.55h-3.42l-14.14-19.5Z"/>
        <path class="cls-1" d="M178.23,79.38h.21l-15.56,33.7h-3.05l17.08-36.8h2.84l17.14,36.8h-3.1l-15.56-33.7Zm11.57,24.44h-23.03l1-2.63h21.18l.84,2.63Z"/>
        <path class="cls-1" d="M202.99,113.08v-36.8h2.63l15.82,26.07h-.47l15.82-26.07h2.63v36.8h-2.89v-31.44l-14.77,24.39h-1.1l-14.77-24.44v31.49h-2.89Z"/>
        <path class="cls-1" d="M266.7,113.55c-3.57,0-6.79-.81-9.65-2.42-2.86-1.61-5.1-3.86-6.73-6.73-1.63-2.87-2.44-6.12-2.44-9.73s.82-6.85,2.44-9.73c1.63-2.87,3.87-5.12,6.73-6.73,2.86-1.61,6.09-2.42,9.7-2.42s6.84,.81,9.7,2.42c2.86,1.61,5.1,3.86,6.73,6.73s2.45,6.12,2.45,9.73-.82,6.85-2.45,9.73c-1.63,2.87-3.87,5.12-6.73,6.73-2.86,1.61-6.11,2.42-9.75,2.42Zm.05-2.63c3.01,0,5.74-.69,8.17-2.08,2.44-1.38,4.34-3.31,5.7-5.78,1.37-2.47,2.05-5.26,2.05-8.38s-.68-5.91-2.05-8.38c-1.37-2.47-3.27-4.4-5.7-5.78-2.44-1.38-5.16-2.08-8.17-2.08s-5.78,.69-8.2,2.08c-2.42,1.38-4.31,3.31-5.68,5.78-1.37,2.47-2.05,5.27-2.05,8.38s.68,5.91,2.05,8.38c1.37,2.47,3.26,4.4,5.68,5.78,2.42,1.38,5.15,2.08,8.2,2.08Z"/>
        <path class="cls-1" d="M294.09,113.08v-36.8h2.89v34.17h22.29v2.63h-25.18Z"/>
        <path class="cls-1" d="M339.4,113.55c-3.57,0-6.79-.81-9.65-2.42-2.86-1.61-5.1-3.86-6.73-6.73-1.63-2.87-2.44-6.12-2.44-9.73s.82-6.85,2.44-9.73c1.63-2.87,3.87-5.12,6.73-6.73,2.86-1.61,6.09-2.42,9.7-2.42s6.84,.81,9.7,2.42c2.86,1.61,5.1,3.86,6.73,6.73s2.45,6.12,2.45,9.73-.82,6.85-2.45,9.73-3.87,5.12-6.73,6.73c-2.86,1.61-6.11,2.42-9.75,2.42Zm.05-2.63c3.01,0,5.74-.69,8.17-2.08,2.44-1.38,4.34-3.31,5.7-5.78,1.37-2.47,2.05-5.26,2.05-8.38s-.68-5.91-2.05-8.38c-1.37-2.47-3.27-4.4-5.7-5.78-2.44-1.38-5.16-2.08-8.17-2.08s-5.78,.69-8.2,2.08c-2.42,1.38-4.31,3.31-5.68,5.78-1.37,2.47-2.05,5.27-2.05,8.38s.68,5.91,2.05,8.38c1.37,2.47,3.26,4.4,5.68,5.78,2.42,1.38,5.15,2.08,8.2,2.08Z"/>
        <path class="cls-1" d="M366.79,113.08v-36.8h2.47l25.29,31.75v-31.75h2.89v36.8h-2.37l-25.39-31.86v31.86h-2.89Z"/>
      </g>
    </g>
  </g>
</svg>