<svg width="1091" height="1310" viewBox="0 0 1091 1310" fill="none" xmlns="http://www.w3.org/2000/svg">
<g clip-path="url(#clip0_1246_3282)">
<path d="M545 957.5C564.387 957.5 580.99 950.591 594.808 936.773C608.603 922.979 615.5 906.388 615.5 887C615.5 867.613 608.603 851.01 594.808 837.192C580.99 823.397 564.387 816.5 545 816.5C525.612 816.5 509.021 823.397 495.227 837.192C481.409 851.01 474.5 867.613 474.5 887C474.5 906.388 481.409 922.979 495.227 936.773C509.021 950.591 525.612 957.5 545 957.5ZM545 1310C450.412 1229.51 379.771 1154.75 333.077 1085.7C286.359 1016.68 263 952.8 263 894.05C263 805.925 291.353 735.719 348.058 683.431C404.74 631.144 470.387 605 545 605C619.612 605 685.26 631.144 741.942 683.431C798.647 735.719 827 805.925 827 894.05C827 952.8 803.653 1016.68 756.958 1085.7C710.24 1154.75 639.587 1229.51 545 1310Z" fill="#ED3240"/>
</g>
<rect x="166" y="63" width="758" height="964" fill="white"/>
<path d="M841.126 0C1012.41 0 1090.27 77.8615 1090.27 249.144V841.095C1090.27 1012.38 1012.41 1090.24 841.126 1090.24H249.144C77.8619 1090.24 0 1012.38 0 841.095V249.144C0 77.8615 77.8619 0 249.144 0H841.126ZM628.725 494.695C719.175 492.466 733.861 416.273 707.193 350.813C679.702 283.427 661.947 233.12 631.661 167.202C610.311 120.824 577.613 98.8878 545.134 99.1665C512.652 98.8874 479.954 120.824 458.603 167.202C428.32 233.12 410.563 283.427 383.072 350.813C356.404 416.273 371.09 492.466 461.54 494.695C492.004 495.442 513.966 495.667 545.134 495.597C576.299 495.667 598.261 495.442 628.725 494.695ZM461.54 595.603C371.09 597.832 356.404 674.026 383.072 739.485C410.563 806.872 428.318 857.178 458.603 923.096C479.954 969.474 512.652 991.41 545.131 991.131C577.613 991.41 610.311 969.474 631.661 923.096C661.945 857.178 679.702 806.872 707.193 739.485C733.861 674.026 719.175 597.832 628.725 595.603C598.261 594.857 576.299 594.631 545.131 594.702C513.966 594.631 492.004 594.857 461.54 595.603Z" fill="#ED3240"/>
<defs>
<clipPath id="clip0_1246_3282">
<rect width="468" height="312" fill="white" transform="translate(311 998)"/>
</clipPath>
</defs>
</svg>
