<?xml version="1.0" encoding="UTF-8"?>
<svg id="_Слой_2" data-name="Слой 2" xmlns="http://www.w3.org/2000/svg" viewBox="0 0 417.95 274.47">
  <defs>
    <style>
      .cls-1 {
        fill: #e4b156;
      }
    </style>
  </defs>
  <g id="_Слой_1-2" data-name="Слой 1">
    <g>
      <g>
        <g>
          <path class="cls-1" d="M75.1,274.29v-13.89h6.41c.91,0,1.7,.14,2.37,.43,.67,.29,1.18,.69,1.55,1.21s.55,1.13,.55,1.84c0,.61-.13,1.16-.4,1.66s-.64,.9-1.13,1.2c-.49,.3-1.07,.5-1.73,.58l-.12-.2c1.24,.04,2.23,.39,2.96,1.04,.73,.66,1.09,1.5,1.09,2.53,0,.73-.2,1.37-.6,1.92s-.96,.97-1.69,1.26c-.73,.29-1.59,.44-2.58,.44h-6.69Zm1.09-6.49v-1.09h5.26c.7,0,1.3-.1,1.81-.31s.88-.5,1.14-.89c.26-.39,.39-.86,.39-1.42,0-.85-.3-1.49-.91-1.94-.61-.44-1.49-.67-2.64-.67h-4.92v11.71h5.26c.83,0,1.54-.11,2.11-.32s1.01-.52,1.31-.91c.3-.4,.45-.88,.45-1.45,0-.86-.33-1.53-1-2-.67-.48-1.6-.71-2.81-.71h-5.44Z"/>
          <path class="cls-1" d="M100.95,274.47c-1.18,0-2.2-.24-3.06-.71-.86-.47-1.52-1.14-1.98-2.02-.46-.88-.69-1.92-.69-3.13v-8.22h1.21v8.02c0,1,.18,1.87,.55,2.59,.36,.72,.89,1.27,1.57,1.66,.68,.38,1.49,.58,2.41,.58,1.4,0,2.51-.43,3.31-1.28,.81-.85,1.21-2.04,1.21-3.54v-8.02h1.19v8.22c0,1.2-.23,2.25-.69,3.13-.46,.88-1.12,1.55-1.98,2.02-.86,.47-1.87,.71-3.04,.71Z"/>
          <path class="cls-1" d="M120.4,274.47c-1.05,0-2.04-.19-2.99-.56-.95-.37-1.76-.87-2.43-1.51l.6-.93s.08,.08,.12,.12c.04,.04,.09,.07,.14,.1,.66,.54,1.39,.96,2.18,1.25s1.61,.44,2.46,.44c.77,0,1.43-.12,1.99-.35s.99-.55,1.29-.95c.3-.4,.45-.85,.45-1.34,0-.56-.14-1.01-.43-1.36s-.7-.63-1.26-.84c-.56-.21-1.32-.43-2.28-.65-1.11-.24-2.01-.52-2.71-.83-.69-.32-1.22-.73-1.58-1.23-.36-.5-.54-1.12-.54-1.87s.21-1.43,.64-1.99c.42-.56,1.01-.99,1.75-1.29,.74-.3,1.57-.45,2.48-.45,.85,0,1.66,.13,2.45,.4,.79,.26,1.51,.64,2.17,1.13l-.65,.89c-.57-.41-1.2-.73-1.91-.97-.7-.24-1.41-.36-2.12-.36s-1.35,.11-1.9,.33c-.55,.22-.97,.53-1.27,.93s-.45,.87-.45,1.4,.14,.95,.42,1.3,.7,.64,1.27,.87c.57,.23,1.33,.45,2.28,.67,1.16,.26,2.09,.55,2.78,.85,.69,.3,1.2,.7,1.55,1.17,.34,.48,.52,1.09,.52,1.83s-.22,1.44-.65,2.01c-.43,.58-1.03,1.02-1.79,1.33s-1.62,.47-2.59,.47Z"/>
          <path class="cls-1" d="M134.25,274.29v-13.89h1.21v13.89h-1.21Z"/>
          <path class="cls-1" d="M145.19,274.29v-13.89h1.03l9.41,11.79v-11.79h1.21v13.89h-.99l-9.45-11.85v11.85h-1.21Z"/>
          <path class="cls-1" d="M167.76,261.47v11.75h9.39v1.07h-10.58v-13.89h10.38v1.07h-9.19Zm-.18,6.27v-1.09h8.26v1.09h-8.26Z"/>
          <path class="cls-1" d="M190.38,274.47c-1.05,0-2.04-.19-2.99-.56-.95-.37-1.76-.87-2.43-1.51l.6-.93s.08,.08,.12,.12c.04,.04,.09,.07,.14,.1,.66,.54,1.39,.96,2.18,1.25s1.61,.44,2.46,.44c.77,0,1.43-.12,1.99-.35s.99-.55,1.29-.95c.3-.4,.45-.85,.45-1.34,0-.56-.14-1.01-.43-1.36s-.7-.63-1.26-.84c-.56-.21-1.32-.43-2.28-.65-1.11-.24-2.01-.52-2.71-.83-.69-.32-1.22-.73-1.58-1.23-.36-.5-.54-1.12-.54-1.87s.21-1.43,.64-1.99c.42-.56,1.01-.99,1.75-1.29,.74-.3,1.57-.45,2.48-.45,.85,0,1.66,.13,2.45,.4,.79,.26,1.51,.64,2.17,1.13l-.65,.89c-.57-.41-1.2-.73-1.91-.97-.7-.24-1.41-.36-2.12-.36s-1.35,.11-1.9,.33c-.55,.22-.97,.53-1.27,.93s-.45,.87-.45,1.4,.14,.95,.42,1.3,.7,.64,1.27,.87c.57,.23,1.33,.45,2.28,.67,1.16,.26,2.09,.55,2.78,.85,.69,.3,1.2,.7,1.55,1.17,.34,.48,.52,1.09,.52,1.83s-.22,1.44-.65,2.01c-.43,.58-1.03,1.02-1.79,1.33s-1.62,.47-2.59,.47Z"/>
          <path class="cls-1" d="M208.66,274.47c-1.05,0-2.04-.19-2.99-.56-.95-.37-1.76-.87-2.43-1.51l.6-.93s.08,.08,.12,.12c.04,.04,.09,.07,.14,.1,.66,.54,1.39,.96,2.18,1.25s1.61,.44,2.46,.44c.77,0,1.43-.12,1.99-.35s.99-.55,1.29-.95c.3-.4,.45-.85,.45-1.34,0-.56-.14-1.01-.43-1.36s-.7-.63-1.26-.84c-.56-.21-1.32-.43-2.28-.65-1.11-.24-2.01-.52-2.71-.83-.69-.32-1.22-.73-1.58-1.23-.36-.5-.54-1.12-.54-1.87s.21-1.43,.64-1.99c.42-.56,1.01-.99,1.75-1.29,.74-.3,1.57-.45,2.48-.45,.85,0,1.66,.13,2.45,.4,.79,.26,1.51,.64,2.17,1.13l-.65,.89c-.57-.41-1.2-.73-1.91-.97-.7-.24-1.41-.36-2.12-.36s-1.35,.11-1.9,.33c-.55,.22-.97,.53-1.27,.93s-.45,.87-.45,1.4,.14,.95,.42,1.3,.7,.64,1.27,.87c.57,.23,1.33,.45,2.28,.67,1.16,.26,2.09,.55,2.78,.85,.69,.3,1.2,.7,1.55,1.17,.34,.48,.52,1.09,.52,1.83s-.22,1.44-.65,2.01c-.43,.58-1.03,1.02-1.79,1.33s-1.62,.47-2.59,.47Z"/>
          <path class="cls-1" d="M240.28,274.47c-1.34,0-2.55-.31-3.63-.93-1.08-.62-1.94-1.47-2.56-2.56-.62-1.08-.93-2.29-.93-3.63s.31-2.53,.92-3.62,1.46-1.95,2.54-2.57,2.29-.93,3.62-.93c1.08,0,2.05,.18,2.9,.53,.85,.35,1.61,.86,2.28,1.54l-.75,.73c-.58-.56-1.23-.99-1.94-1.31-.71-.32-1.53-.48-2.47-.48-1.1,0-2.1,.27-3.01,.81-.91,.54-1.62,1.28-2.13,2.21-.52,.93-.77,1.96-.77,3.07s.26,2.17,.78,3.11c.52,.93,1.24,1.67,2.14,2.2,.91,.54,1.9,.8,2.99,.8,.89,0,1.71-.17,2.46-.5,.75-.33,1.42-.79,1.98-1.37l.75,.73c-.64,.69-1.4,1.22-2.28,1.6-.89,.38-1.85,.57-2.9,.57Z"/>
          <path class="cls-1" d="M255.07,261.47v11.75h9.39v1.07h-10.58v-13.89h10.38v1.07h-9.19Zm-.18,6.27v-1.09h8.26v1.09h-8.26Z"/>
          <path class="cls-1" d="M273.25,274.29v-13.89h1.03l9.41,11.79v-11.79h1.21v13.89h-.99l-9.45-11.85v11.85h-1.21Z"/>
          <path class="cls-1" d="M304.24,261.47h-11.02v-1.07h11.02v1.07Zm-6.11-.18h1.19v13h-1.19v-13Z"/>
          <path class="cls-1" d="M313.74,261.47v11.75h9.39v1.07h-10.58v-13.89h10.38v1.07h-9.19Zm-.18,6.27v-1.09h8.26v1.09h-8.26Z"/>
          <path class="cls-1" d="M331.93,274.29v-13.89h1.21v13.89h-1.21Zm.79-5.18l.32-1.09h4.11c.98,0,1.8-.12,2.45-.36,.66-.24,1.15-.6,1.5-1.08,.34-.48,.52-1.09,.52-1.84,0-1.07-.38-1.89-1.14-2.44-.76-.56-1.86-.83-3.31-.83h-4.13l-.24-1.07h4.39c1.19,0,2.21,.17,3.05,.51,.84,.34,1.48,.83,1.91,1.48s.65,1.44,.65,2.36-.22,1.73-.65,2.38c-.44,.65-1.08,1.14-1.92,1.48-.84,.34-1.86,.51-3.07,.51h-4.43Zm8.61,5.18l-4.84-5.3,1.39-.18,4.96,5.48h-1.51Z"/>
        </g>
        <g>
          <path class="cls-1" d="M11.14,231.46c-.37,1.03-.64,1.91-.83,2.62-.18,.72-.28,1.44-.28,2.15,0,1.08,.36,1.95,1.08,2.63,.72,.67,1.59,1.01,2.63,1.01v.61H0v-.61c.81-.18,1.47-.41,1.99-.71,.52-.29,1.03-.8,1.55-1.52s1.07-1.71,1.65-2.97c.4-.9,.85-1.98,1.35-3.23l10.85-28.64c.36-.99,.62-1.73,.77-2.22,.16-.49,.24-1.06,.24-1.68,0-.58-.19-1.06-.57-1.42-.38-.36-.89-.61-1.52-.74v-.61h14.96v.61c-1.3,.36-1.95,1.17-1.95,2.43,0,.36,.06,.76,.17,1.21,.11,.45,.26,.92,.44,1.41l11.52,33.15c.31,.81,.65,1.62,1.01,2.43,.67,1.3,1.71,2.13,3.1,2.49v.61h-15.3v-.61c1.17-.27,2.01-.81,2.53-1.61,.52-.81,.78-1.84,.78-3.1,0-3.32-1.73-6.49-5.18-9.5-3.77-3.28-8.21-4.92-13.32-4.92l-3.91,10.71Zm11.02-30.22l-6.11,16.13c2.65,0,5.13,.44,7.47,1.31,2.33,.88,4.37,2.24,6.12,4.08l-7.48-21.52Z"/>
          <path class="cls-1" d="M59.17,232.73c0,3.1,1.66,4.65,4.99,4.65,4.27,0,8.06-1.18,11.39-3.54,3.32-2.36,5.93-5.54,7.82-9.54l.61,.27-5.8,16.78c-.27-.31-.7-.54-1.28-.67-.58-.13-1.12-.2-1.62-.2h-27.9v-.61c1.89-.27,3.14-1.17,3.77-2.69,.4-.99,.61-2.67,.61-5.05v-27.16c0-3.19-.34-5.3-1.01-6.33-.67-1.03-1.8-1.66-3.37-1.89v-.61h16.17v.61c-1.48,.13-2.58,.7-3.3,1.68-.72,.99-1.08,3.01-1.08,6.06v28.24Z"/>
          <path class="cls-1" d="M104.49,226.94c-.22-.18-.55-.31-.98-.41-.43-.09-.82-.13-1.18-.13h-6.6c-1.53,0-2.63,.08-3.3,.24-.67,.16-1.28,.66-1.82,1.52h-.54l2.83-7.55c.27,.22,.57,.37,.91,.44,.34,.07,.75,.1,1.25,.1h7.35c1.44,0,2.43-.12,2.96-.37,.54-.25,1.01-.71,1.42-1.38h.54l-2.83,7.55Z"/>
          <path class="cls-1" d="M122.19,200.79v30.86c0,2.61,.18,4.4,.54,5.39,.63,1.71,1.91,2.65,3.84,2.83v.61h-13.14v-.61c1.89-.27,3.14-1.17,3.77-2.69,.4-.99,.61-2.67,.61-5.05v-27.16c0-3.19-.34-5.3-1.01-6.33-.67-1.03-1.8-1.66-3.37-1.89v-.61h17.05v.61c-.76,.18-1.15,.63-1.15,1.35,0,.58,.29,1.41,.88,2.49l7.72,14.12,7.68-12.44c1.18-1.88,1.78-3.25,1.78-4.1,0-.76-.4-1.23-1.21-1.41v-.61h16.17v.61c-1.89,.31-3.15,1.24-3.77,2.76-.4,.99-.61,2.65-.61,4.99v27.16c0,3.15,.34,5.25,1.01,6.3,.67,1.06,1.8,1.7,3.37,1.92v.61h-16.17v-.61c1.89-.22,3.14-1.1,3.77-2.63,.4-1.03,.61-2.74,.61-5.12v-31.33l-14.76,23.92-13.61-23.92Z"/>
          <path class="cls-1" d="M176.72,231.46c-.37,1.03-.64,1.91-.83,2.62-.18,.72-.28,1.44-.28,2.15,0,1.08,.36,1.95,1.08,2.63,.72,.67,1.59,1.01,2.63,1.01v.61h-13.75v-.61c.81-.18,1.47-.41,1.99-.71,.52-.29,1.03-.8,1.55-1.52s1.07-1.71,1.65-2.97c.4-.9,.85-1.98,1.35-3.23l10.85-28.64c.36-.99,.62-1.73,.77-2.22,.16-.49,.24-1.06,.24-1.68,0-.58-.19-1.06-.57-1.42-.38-.36-.89-.61-1.52-.74v-.61h14.96v.61c-1.3,.36-1.95,1.17-1.95,2.43,0,.36,.06,.76,.17,1.21,.11,.45,.26,.92,.44,1.41l11.52,33.15c.31,.81,.65,1.62,1.01,2.43,.67,1.3,1.71,2.13,3.1,2.49v.61h-15.3v-.61c1.17-.27,2.01-.81,2.53-1.61,.52-.81,.78-1.84,.78-3.1,0-3.32-1.73-6.49-5.18-9.5-3.77-3.28-8.21-4.92-13.32-4.92l-3.91,10.71Zm11.02-30.22l-6.11,16.13c2.65,0,5.13,.44,7.47,1.31,2.33,.88,4.37,2.24,6.12,4.08l-7.48-21.52Z"/>
          <path class="cls-1" d="M247.1,208.95l-.54,.14c-1.03-3.05-2.94-5.54-5.73-7.45-2.79-1.91-5.84-2.86-9.17-2.86-2.07,0-3.89,.41-5.46,1.21-2.02,1.03-3.03,2.49-3.03,4.38,0,1.39,.85,2.54,2.56,3.44,.63,.32,2.09,.83,4.38,1.55l9.43,2.83c1.98,.63,3.48,1.17,4.51,1.62,1.66,.76,3.07,1.68,4.21,2.76,1.15,1.08,2.02,2.37,2.63,3.88,.61,1.51,.91,3.16,.91,4.95,0,4.67-2,8.56-6,11.66-3.73,2.88-8.09,4.31-13.07,4.31-1.44,0-3.12-.22-5.05-.67-4.22-.99-6.6-1.48-7.14-1.48-.45,0-.85,.1-1.21,.3-.36,.2-.72,.5-1.08,.91l-3.91-16.85,.61-.2c1.26,4.09,3.37,7.41,6.33,9.97,3.19,2.74,6.85,4.11,10.98,4.11,3.59,0,6.63-.9,9.1-2.7,2.47-1.8,3.71-4,3.71-6.61s-1.08-4.59-3.23-6.07c-1.26-.85-3.48-1.78-6.67-2.76l-8.96-2.76c-3.15-.94-5.44-2.06-6.88-3.37-1.93-1.71-2.9-4-2.9-6.87,0-3.68,1.73-6.53,5.19-8.55,2.87-1.66,6.29-2.49,10.24-2.49,1.8,0,3.73,.25,5.8,.74,2.07,.49,3.5,.74,4.31,.74,.94,0,1.75-.41,2.43-1.21l2.7,13.41Z"/>
          <path class="cls-1" d="M266.83,231.66c0,2.61,.18,4.4,.54,5.39,.63,1.71,1.91,2.65,3.84,2.83v.61h-16.17v-.61c1.48-.22,2.58-.82,3.3-1.79,.72-.97,1.08-2.95,1.08-5.96v-27.16c0-3.19-.34-5.3-1.01-6.33-.67-1.03-1.8-1.66-3.37-1.89v-.61h16.17v.61c-1.89,.22-3.15,1.1-3.77,2.63-.4,1.03-.61,2.74-.61,5.12v3.98h20.08v-3.5c0-2.7-.18-4.56-.54-5.59-.58-1.75-1.86-2.63-3.84-2.63v-.61h16.17v.61c-1.89,.22-3.15,1.12-3.77,2.69-.4,1.03-.61,2.72-.61,5.05v27.16c0,2.56,.18,4.34,.54,5.32,.63,1.71,1.91,2.67,3.84,2.9v.61h-16.17v-.61c1.89,0,3.14-.81,3.77-2.43,.4-1.03,.61-2.81,.61-5.32v-20.42h-20.08v19.95Z"/>
          <path class="cls-1" d="M328.01,196.14c3.55,0,6.05,.55,7.51,1.65,1.46,1.1,2.19,2.84,2.19,5.22s-1.08,4.67-3.23,6.74c-1.48,1.39-3.64,2.85-6.47,4.38,2.43,2.7,4.67,5.86,6.74,9.5,1.89,3.28,3.57,6.81,5.05,10.58,.85,1.98,1.39,3.14,1.62,3.5,.76,1.21,1.8,1.93,3.1,2.16v.61h-14.15v-.61c.83-.13,1.44-.39,1.83-.77,.39-.38,.59-1,.59-1.85,0-1.12-.45-2.74-1.35-4.85-.67-1.57-1.44-3.1-2.29-4.58l-6.94-10.04-.67-.88-7.82,2.7v12.06c0,2.7,.18,4.52,.54,5.46,.58,1.57,1.86,2.49,3.84,2.76v.61h-16.17v-.61c1.89-.31,3.14-1.23,3.77-2.76,.4-1.03,.61-2.72,.61-5.05v-27.09c0-3.19-.34-5.3-1.01-6.33-.67-1.03-1.8-1.66-3.37-1.89v-.61h26.08Zm-14.29,20.28c3.91-1.12,7.28-2.47,10.11-4.04,4.36-2.47,6.54-5.08,6.54-7.82,0-2.16-.85-3.64-2.56-4.45-1.21-.58-3.06-.88-5.53-.88-1.98,0-3.63,.08-4.95,.24-1.33,.16-2.26,.57-2.8,1.25-.32,.36-.53,.92-.64,1.68-.11,.77-.17,1.6-.17,2.49v11.52Z"/>
          <path class="cls-1" d="M359.53,231.66c0,3.19,.34,5.3,1.01,6.33,.67,1.03,1.8,1.66,3.37,1.89v.61h-16.17v-.61c1.89-.22,3.14-1.12,3.77-2.69,.41-1.03,.61-2.72,.61-5.05v-27.16c0-3.19-.34-5.3-1.01-6.33-.67-1.03-1.8-1.66-3.37-1.89v-.61h16.17v.61c-1.89,.31-3.15,1.24-3.77,2.76-.4,1.03-.61,2.72-.61,5.05v27.09Z"/>
          <path class="cls-1" d="M417.14,235.7c.54,1.3,.81,2.56,.81,3.77,0,2.43-.76,4.42-2.29,6-1.53,1.57-3.53,2.36-6,2.36-2.16,0-4.29-.85-6.4-2.56-1.26-1.03-2.88-2.76-4.85-5.19-1.12,.45-2.27,.77-3.44,.98s-2.45,.3-3.84,.3c-3.19,0-6.23-.49-9.13-1.48-2.9-.99-5.47-2.54-7.72-4.65-2.25-2.11-4-4.67-5.26-7.68-1.26-3.01-1.89-6.11-1.89-9.3,0-6.6,2.29-12.08,6.87-16.44,4.58-4.36,10.22-6.54,16.91-6.54s12.41,2.21,17.01,6.64c4.61,4.42,6.91,10.01,6.91,16.75,0,4.04-.93,7.71-2.8,11.02-1.87,3.3-4.55,6.01-8.05,8.12,1.3,1.35,2.49,2.34,3.57,2.97,1.44,.85,2.92,1.28,4.45,1.28,1.39,0,2.55-.42,3.47-1.25s1.38-1.92,1.38-3.27c0-.36-.09-.9-.27-1.62l.54-.2Zm-28.98-7.62c2.47,0,4.81,.58,7.01,1.75s4.2,2.76,6,4.78c1.98-1.84,3.4-3.86,4.28-6.06,.88-2.2,1.31-4.72,1.31-7.55,0-5.66-1.53-10.6-4.58-14.83-3.37-4.67-7.77-7.01-13.21-7.01-4.58,0-8.2,1.93-10.85,5.8-1.08,1.53-1.83,3.23-2.26,5.12-.43,1.89-.64,3.91-.64,6.06,0,2.74,.33,5.3,.98,7.68,.65,2.38,1.72,4.63,3.2,6.74,1.44-.76,2.9-1.37,4.38-1.82,1.48-.45,2.94-.67,4.38-.67Zm4.72,9.57c1.08,0,2.13-.14,3.17-.41-1.57-1.89-3.28-3.48-5.12-4.78-2.29-1.57-4.45-2.36-6.47-2.36-.76,0-1.45,.07-2.06,.2-.61,.13-1.47,.38-2.59,.74,3.28,4.4,7.64,6.6,13.07,6.6Z"/>
        </g>
      </g>
      <g>
        <g>
          <rect class="cls-1" x="225.25" y="27.7" width="5.56" height="110.81"/>
          <polygon class="cls-1" points="235.51 30.48 225.25 38.3 225.25 27.7 235.51 27.7 235.51 30.48"/>
          <polygon class="cls-1" points="235.51 135.73 225.25 127.92 225.25 138.51 235.51 138.51 235.51 135.73"/>
        </g>
        <g>
          <rect class="cls-1" x="244.16" y="49.87" width="5.56" height="66.49"/>
          <polygon class="cls-1" points="254.41 52.65 244.16 60.46 244.16 49.87 254.41 49.87 254.41 52.65"/>
          <polygon class="cls-1" points="254.41 113.57 244.16 105.75 244.16 116.35 254.41 116.35 254.41 113.57"/>
        </g>
        <g>
          <g>
            <rect class="cls-1" x="271.37" y="70.64" width="5.56" height="22.16" transform="translate(355.87 -192.43) rotate(90)"/>
            <polygon class="cls-1" points="282.45 89.19 274.63 78.94 285.23 78.94 285.23 89.19 282.45 89.19"/>
            <polygon class="cls-1" points="282.45 74.25 274.63 84.5 285.23 84.5 285.23 74.25 282.45 74.25"/>
          </g>
          <g>
            <rect class="cls-1" x="265.83" y="59.44" width="5.56" height="11.08" transform="translate(333.58 -203.63) rotate(90)"/>
            <polygon class="cls-1" points="271.37 57.51 263.55 67.76 274.15 67.76 274.15 57.51 271.37 57.51"/>
          </g>
          <g>
            <rect class="cls-1" x="265.83" y="95.7" width="5.56" height="11.08" transform="translate(167.37 369.85) rotate(-90)"/>
            <polygon class="cls-1" points="271.37 108.71 263.55 98.46 274.15 98.46 274.15 108.71 271.37 108.71"/>
          </g>
        </g>
        <g>
          <rect class="cls-1" x="206.34" width="5.58" height="166.22"/>
          <polygon class="cls-1" points="216.6 2.78 206.35 10.6 206.35 0 216.6 0 216.6 2.78"/>
          <polygon class="cls-1" points="216.6 163.44 206.35 155.62 206.35 166.22 216.6 166.22 216.6 163.44"/>
          <rect class="cls-1" x="206.03" y="0" width="5.58" height="166.22" transform="translate(417.63 166.22) rotate(-180)"/>
          <polygon class="cls-1" points="201.35 2.78 211.6 10.6 211.6 0 201.35 0 201.35 2.78"/>
          <polygon class="cls-1" points="201.35 163.44 211.6 155.62 211.6 166.22 201.35 166.22 201.35 163.44"/>
        </g>
        <g>
          <rect class="cls-1" x="187.13" y="27.7" width="5.56" height="110.81" transform="translate(379.82 166.22) rotate(-180)"/>
          <polygon class="cls-1" points="182.44 30.48 192.69 38.3 192.69 27.7 182.44 27.7 182.44 30.48"/>
          <polygon class="cls-1" points="182.44 135.73 192.69 127.92 192.69 138.51 182.44 138.51 182.44 135.73"/>
        </g>
        <g>
          <rect class="cls-1" x="168.23" y="49.87" width="5.56" height="66.49" transform="translate(342.01 166.22) rotate(-180)"/>
          <polygon class="cls-1" points="163.53 52.65 173.79 60.46 173.79 49.87 163.53 49.87 163.53 52.65"/>
          <polygon class="cls-1" points="163.53 113.57 173.79 105.75 173.79 116.35 163.53 116.35 163.53 113.57"/>
        </g>
        <g>
          <g>
            <rect class="cls-1" x="141.02" y="70.64" width="5.56" height="22.16" transform="translate(225.52 -62.08) rotate(90)"/>
            <polygon class="cls-1" points="135.5 89.19 143.32 78.94 132.72 78.94 132.72 89.19 135.5 89.19"/>
            <polygon class="cls-1" points="135.5 74.25 143.32 84.5 132.72 84.5 132.72 74.25 135.5 74.25"/>
          </g>
          <g>
            <rect class="cls-1" x="146.56" y="59.44" width="5.56" height="11.08" transform="translate(214.32 -84.36) rotate(90)"/>
            <polygon class="cls-1" points="146.58 57.51 154.4 67.76 143.8 67.76 143.8 57.51 146.58 57.51"/>
          </g>
          <g>
            <rect class="cls-1" x="146.56" y="95.7" width="5.56" height="11.08" transform="translate(48.1 250.58) rotate(-90)"/>
            <polygon class="cls-1" points="146.58 108.71 154.4 98.46 143.8 98.46 143.8 108.71 146.58 108.71"/>
          </g>
        </g>
      </g>
    </g>
  </g>
</svg>