<svg width="12" height="12" viewBox="0 0 12 12" fill="none" xmlns="http://www.w3.org/2000/svg">
<path d="M9.50008 7.75H8.33341V8.91667H9.50008M9.50008 5.41667H8.33341V6.58333H9.50008M10.6667 10.0833H6.00008V8.91667H7.16675V7.75H6.00008V6.58333H7.16675V5.41667H6.00008V4.25H10.6667M4.83341 3.08333H3.66675V1.91667H4.83341M4.83341 5.41667H3.66675V4.25H4.83341M4.83341 7.75H3.66675V6.58333H4.83341M4.83341 10.0833H3.66675V8.91667H4.83341M2.50008 3.08333H1.33341V1.91667H2.50008M2.50008 5.41667H1.33341V4.25H2.50008M2.50008 7.75H1.33341V6.58333H2.50008M2.50008 10.0833H1.33341V8.91667H2.50008M6.00008 3.08333V0.75H0.166748V11.25H11.8334V3.08333H6.00008Z" fill="white"/>
</svg>
