<svg width="18" height="18" viewBox="0 0 18 18" fill="none" xmlns="http://www.w3.org/2000/svg">
<path d="M12.3334 2.33335C12.3334 1.40835 13.0751 0.666687 14.0001 0.666687C14.9251 0.666687 15.6667 1.40835 15.6667 2.33335C15.6667 3.25835 14.9251 4.00002 14.0001 4.00002C13.0751 4.00002 12.3334 3.25835 12.3334 2.33335ZM15.6667 16.5V12.3334H16.5917C17.1584 12.3334 17.5584 11.775 17.3834 11.2334L15.6334 5.97502C15.5219 5.64311 15.3092 5.35449 15.0252 5.14971C14.7412 4.94493 14.4002 4.83429 14.0501 4.83335H13.9501C13.5997 4.83304 13.258 4.94318 12.9738 5.14814C12.6895 5.35309 12.4771 5.64243 12.3667 5.97502L11.6501 8.12502C12.5501 8.62502 13.1667 9.56669 13.1667 10.6667V17.3334H14.8334C15.2917 17.3334 15.6667 16.9584 15.6667 16.5ZM9.41675 8.58335C10.1084 8.58335 10.6667 8.02502 10.6667 7.33335C10.6667 6.64169 10.1084 6.08335 9.41675 6.08335C8.72508 6.08335 8.16675 6.64169 8.16675 7.33335C8.16675 8.02502 8.72508 8.58335 9.41675 8.58335ZM3.58341 4.00002C4.50841 4.00002 5.25008 3.25835 5.25008 2.33335C5.25008 1.40835 4.50841 0.666687 3.58341 0.666687C2.65841 0.666687 1.91675 1.40835 1.91675 2.33335C1.91675 3.25835 2.65841 4.00002 3.58341 4.00002ZM5.25008 16.5V11.5H5.66675C6.12508 11.5 6.50008 11.125 6.50008 10.6667V6.50002C6.50008 5.58335 5.75008 4.83335 4.83341 4.83335H2.33341C1.41675 4.83335 0.666748 5.58335 0.666748 6.50002V10.6667C0.666748 11.125 1.04175 11.5 1.50008 11.5H1.91675V16.5C1.91675 16.9584 2.29175 17.3334 2.75008 17.3334H4.41675C4.87508 17.3334 5.25008 16.9584 5.25008 16.5ZM7.33342 10.6667V13.1667C7.33342 13.625 7.70842 14 8.16675 14V16.5C8.16675 16.9584 8.54175 17.3334 9.00008 17.3334H9.83342C10.2917 17.3334 10.6667 16.9584 10.6667 16.5V14C11.1251 14 11.5001 13.625 11.5001 13.1667V10.6667C11.5001 9.98335 10.9334 9.41669 10.2501 9.41669H8.58342C7.90008 9.41669 7.33342 9.98335 7.33342 10.6667Z" fill="#FE152B"/>
</svg>
