<svg width="16" height="16" viewBox="0 0 16 16" fill="none" xmlns="http://www.w3.org/2000/svg">
<path d="M15.8027 11.666C15.7958 11.6466 15.785 11.6288 15.7711 11.6135C15.7572 11.5983 15.7404 11.5859 15.7217 11.5772C15.703 11.5685 15.6827 11.5636 15.6621 11.5627C15.6415 11.5619 15.6209 11.5651 15.6016 11.5723L14.4062 12.0078V1.49609C14.4062 0.761719 13.8125 0.167969 13.0781 0.167969H2.92188C2.1875 0.167969 1.59375 0.761719 1.59375 1.49609V12.0078L0.396484 11.5723C0.378906 11.5664 0.361328 11.5625 0.34375 11.5625C0.257812 11.5625 0.1875 11.6328 0.1875 11.7188V12.8828C0.1875 12.9473 0.228516 13.0059 0.291016 13.0293L7.78516 15.7559C7.92383 15.8066 8.07422 15.8066 8.21289 15.7559L15.709 13.0312C15.7715 13.0078 15.8125 12.9492 15.8125 12.8848V11.7207C15.8125 11.7012 15.8086 11.6836 15.8027 11.666ZM11.041 4.30273L9.01562 8.04492H10.1406C10.2266 8.04492 10.2969 8.11523 10.2969 8.20117V8.73047C10.2969 8.81641 10.2266 8.88672 10.1406 8.88672H8.65039V9.64844H10.1406C10.2266 9.64844 10.2969 9.71875 10.2969 9.80469V10.334C10.2969 10.4199 10.2266 10.4902 10.1406 10.4902H8.65039V11.7305C8.65039 11.8164 8.58008 11.8867 8.49414 11.8867H7.51953C7.43359 11.8867 7.36328 11.8164 7.36328 11.7305V10.4922H5.87891C5.79297 10.4922 5.72266 10.4219 5.72266 10.3359V9.80664C5.72266 9.7207 5.79297 9.65039 5.87891 9.65039H7.36328V8.88867H5.87891C5.79297 8.88867 5.72266 8.81836 5.72266 8.73242V8.20313C5.72266 8.11719 5.79297 8.04688 5.87891 8.04688H6.99219L4.96289 4.30469C4.92188 4.23047 4.94922 4.13477 5.02539 4.09375C5.04883 4.08008 5.07422 4.07422 5.09961 4.07422H6.1875C6.21629 4.07438 6.24447 4.08249 6.26894 4.09765C6.29341 4.11282 6.31322 4.13445 6.32617 4.16016L7.98047 7.45703H8.04492L9.69922 4.16016C9.72461 4.10742 9.7793 4.07422 9.83789 4.07422H10.9023C10.9883 4.07422 11.0586 4.14453 11.0605 4.22852C11.0605 4.25391 11.0527 4.2793 11.041 4.30273Z" fill="#FE152B"/>
</svg>
