<svg width="50" height="50" viewBox="0 0 50 50" fill="none" xmlns="http://www.w3.org/2000/svg">
<path d="M42.6156 7.38438H42.6125L47.85 8.43126C48.1313 8.48751 48.3625 8.69376 48.4438 8.97188C48.4848 9.10698 48.4884 9.25068 48.4543 9.3877C48.4202 9.52471 48.3496 9.64992 48.25 9.75L43.9594 14.0438C43.446 14.5562 42.7503 14.8439 42.025 14.8438H38.4688L29.5312 23.7844C29.7018 24.4282 29.7331 25.101 29.6232 25.7578C29.5133 26.4147 29.2647 27.0407 28.894 27.5939C28.5232 28.1472 28.0388 28.6151 27.473 28.9665C26.9072 29.3179 26.2731 29.5447 25.6128 29.6317C24.9525 29.7188 24.2812 29.6642 23.6437 29.4715C23.0062 29.2788 22.417 28.9524 21.9155 28.5142C21.414 28.0759 21.0116 27.5358 20.7352 26.9299C20.4588 26.3239 20.3147 25.666 20.3125 25C20.313 24.2809 20.4788 23.5716 20.7971 22.9268C21.1154 22.282 21.5777 21.719 22.1482 21.2813C22.7188 20.8436 23.3824 20.543 24.0876 20.4027C24.7929 20.2623 25.521 20.286 26.2156 20.4719L35.1562 11.5281V7.97501C35.1562 7.25001 35.4437 6.55313 35.9562 6.04063L40.25 1.74688C40.3501 1.64728 40.4753 1.57667 40.6123 1.54256C40.7493 1.50844 40.893 1.51209 41.0281 1.55313C41.3062 1.63438 41.5125 1.86563 41.5688 2.14688L42.6156 7.38438Z" fill="#FE152B"/>
<path d="M6.24967 25C6.25289 27.6811 6.83106 30.3304 7.9452 32.7691C9.05934 35.2077 10.6835 37.3791 12.7082 39.1367C14.7329 40.8943 17.1109 42.1973 19.682 42.9576C22.253 43.718 24.9572 43.9182 27.6122 43.5446C30.2672 43.171 32.8112 42.2324 35.0725 40.7921C37.3339 39.3517 39.2601 37.4431 40.7211 35.195C42.1822 32.947 43.1441 30.4117 43.542 27.7603C43.9399 25.1088 43.7646 22.4029 43.0278 19.825C42.9244 19.5238 42.8833 19.2047 42.9071 18.8872C42.9309 18.5696 43.0191 18.2602 43.1663 17.9778C43.3135 17.6955 43.5166 17.446 43.7633 17.2446C44.01 17.0432 44.2951 16.8942 44.6012 16.8065C44.9074 16.7188 45.2281 16.6943 45.544 16.7346C45.8599 16.7748 46.1643 16.8789 46.4387 17.0406C46.7131 17.2022 46.9517 17.418 47.14 17.6748C47.3283 17.9316 47.4624 18.2241 47.534 18.5344C48.9607 23.5266 48.6897 28.8513 46.7636 33.6729C44.8375 38.4945 41.3652 42.5404 36.8916 45.1756C32.418 47.8109 27.1961 48.8865 22.0451 48.2337C16.8942 47.5809 12.1057 45.2367 8.43092 41.5687C4.76012 37.8948 2.41335 33.1059 1.75906 27.9538C1.10478 22.8017 2.18003 17.5782 4.816 13.1033C7.45197 8.62852 11.4994 5.15581 16.3228 3.23042C21.1462 1.30504 26.4724 1.03603 31.4653 2.46561C32.0598 2.6394 32.5613 3.04145 32.8603 3.5839C33.1593 4.12635 33.2314 4.76509 33.0609 5.36054C32.8903 5.95598 32.491 6.45971 31.9502 6.76164C31.4094 7.06357 30.771 7.13915 30.1747 6.97186C27.3827 6.17081 24.4429 6.02925 21.5869 6.55832C18.7309 7.08739 16.0369 8.27263 13.7171 10.0206C11.3974 11.7686 9.51543 14.0315 8.21955 16.631C6.92367 19.2305 6.24932 22.0954 6.24967 25Z" fill="#FE152B"/>
<path d="M15.6245 25C15.6247 26.7081 16.0913 28.3838 16.9738 29.8462C17.8564 31.3086 19.1214 32.5023 20.6326 33.2986C22.1437 34.0948 23.8436 34.4634 25.5488 34.3645C27.254 34.2657 28.8999 33.7031 30.3089 32.7375C31.7177 31.7695 32.8349 30.4348 33.5399 28.8777C34.245 27.3207 34.5109 25.6005 34.3089 23.9032C34.2543 23.4913 34.3104 23.0723 34.4716 22.6894C34.6327 22.3064 34.893 21.9733 35.2256 21.7244C35.5583 21.4754 35.9513 21.3197 36.3641 21.2731C36.777 21.2265 37.1948 21.2908 37.5745 21.4594C37.9542 21.6258 38.2829 21.8899 38.5272 22.2248C38.7715 22.5597 38.9226 22.9533 38.9652 23.3657C39.3047 26.266 38.733 29.2001 37.3293 31.7607C35.9256 34.3213 33.7596 36.3814 31.1319 37.6551C28.5042 38.9288 25.5451 39.3529 22.6655 38.8686C19.7858 38.3842 17.1283 37.0154 15.0619 34.9521C12.9955 32.8888 11.6227 30.2335 11.1339 27.3545C10.6452 24.4756 11.0648 21.5159 12.3345 18.8863C13.6042 16.2567 15.661 14.0875 18.2195 12.6799C20.778 11.2724 23.7112 10.6961 26.612 11.0313C26.9226 11.0601 27.2244 11.1507 27.4995 11.2976C27.7747 11.4445 28.0178 11.6449 28.2145 11.887C28.4112 12.1291 28.5576 12.4081 28.6451 12.7075C28.7326 13.0069 28.7595 13.3208 28.7242 13.6307C28.6888 13.9406 28.5919 14.2404 28.4392 14.5124C28.2865 14.7844 28.081 15.0232 27.8348 15.2148C27.5886 15.4063 27.3067 15.5468 27.0055 15.628C26.7043 15.7092 26.3899 15.7294 26.0808 15.6875C24.7672 15.535 23.4362 15.6621 22.1753 16.0605C20.9143 16.4589 19.7519 17.1195 18.7644 17.999C17.7769 18.8785 16.9866 19.957 16.4454 21.1636C15.9043 22.3702 15.6245 23.6777 15.6245 25Z" fill="#FE152B"/>
</svg>
