<svg width="46" height="42" viewBox="0 0 46 42" fill="none" xmlns="http://www.w3.org/2000/svg">
<path d="M22.9997 37.5834H27.1663V10.5001L40.4872 16.2084C40.8622 16.3691 41.1817 16.6365 41.4062 16.9772C41.6306 17.3179 41.75 17.7171 41.7497 18.1251V37.5834H45.9163V41.7501H0.0830078V37.5834H4.24967V9.77089C4.24962 9.3678 4.36651 8.97336 4.58616 8.63537C4.80582 8.29739 5.1188 8.03038 5.48717 7.86673L21.5351 0.733394C21.6939 0.66286 21.8677 0.633155 22.0409 0.646982C22.2141 0.660809 22.3811 0.717729 22.5266 0.812561C22.6722 0.907393 22.7917 1.03713 22.8743 1.18995C22.957 1.34277 23 1.51383 22.9997 1.68756V37.5834Z" fill="#FE152B"/>
</svg>
