<svg width="14" height="16" viewBox="0 0 14 16" fill="none" xmlns="http://www.w3.org/2000/svg">
<path d="M13.8555 2.78125V1.72656C13.8555 1.44684 13.7444 1.17858 13.5466 0.980786C13.3488 0.782993 13.0805 0.671875 12.8008 0.671875H1.19922C0.919498 0.671875 0.651234 0.782993 0.453442 0.980786C0.25565 1.17858 0.144531 1.44684 0.144531 1.72656V2.78125C0.144531 3.06097 0.25565 3.32923 0.453442 3.52703C0.651234 3.72482 0.919498 3.83594 1.19922 3.83594V10.1641H0.671875C0.532015 10.1641 0.397883 10.2196 0.298987 10.3185C0.20009 10.4174 0.144531 10.5515 0.144531 10.6914C0.144531 10.8313 0.20009 10.9654 0.298987 11.0643C0.397883 11.1632 0.532015 11.2187 0.671875 11.2187H6.47266V12.3657C6.12081 12.4901 5.82426 12.7349 5.63543 13.0568C5.4466 13.3787 5.37764 13.757 5.44075 14.1248C5.50386 14.4926 5.69497 14.8263 5.9803 15.0668C6.26563 15.3074 6.62681 15.4393 7 15.4393C7.37319 15.4393 7.73437 15.3074 8.0197 15.0668C8.30503 14.8263 8.49614 14.4926 8.55925 14.1248C8.62236 13.757 8.5534 13.3787 8.36457 13.0568C8.17574 12.7349 7.87919 12.4901 7.52734 12.3657V11.2187H13.3281C13.468 11.2187 13.6021 11.1632 13.701 11.0643C13.7999 10.9654 13.8555 10.8313 13.8555 10.6914C13.8555 10.5515 13.7999 10.4174 13.701 10.3185C13.6021 10.2196 13.468 10.1641 13.3281 10.1641H12.8008V3.83594C13.0805 3.83594 13.3488 3.72482 13.5466 3.52703C13.7444 3.32923 13.8555 3.06097 13.8555 2.78125ZM5.41797 8.05469C5.41797 8.19455 5.36241 8.32868 5.26351 8.42758C5.16462 8.52647 5.03049 8.58203 4.89062 8.58203C4.75076 8.58203 4.61663 8.52647 4.51774 8.42758C4.41884 8.32868 4.36328 8.19455 4.36328 8.05469V7C4.36328 6.86014 4.41884 6.72601 4.51774 6.62711C4.61663 6.52821 4.75076 6.47266 4.89062 6.47266C5.03049 6.47266 5.16462 6.52821 5.26351 6.62711C5.36241 6.72601 5.41797 6.86014 5.41797 7V8.05469ZM7 14.3828C6.8957 14.3828 6.79374 14.3519 6.70702 14.2939C6.6203 14.236 6.55271 14.1536 6.5128 14.0573C6.47288 13.9609 6.46244 13.8549 6.48279 13.7526C6.50314 13.6503 6.55336 13.5563 6.62711 13.4826C6.70086 13.4088 6.79483 13.3586 6.89712 13.3383C6.99941 13.3179 7.10545 13.3284 7.20181 13.3683C7.29816 13.4082 7.38053 13.4758 7.43847 13.5625C7.49642 13.6492 7.52734 13.7512 7.52734 13.8555C7.52734 13.9953 7.47179 14.1295 7.37289 14.2284C7.27399 14.3273 7.13986 14.3828 7 14.3828ZM7.52734 8.05469C7.52734 8.19455 7.47179 8.32868 7.37289 8.42758C7.27399 8.52647 7.13986 8.58203 7 8.58203C6.86014 8.58203 6.72601 8.52647 6.62711 8.42758C6.52822 8.32868 6.47266 8.19455 6.47266 8.05469V6.47266C6.47266 6.3328 6.52822 6.19866 6.62711 6.09977C6.72601 6.00087 6.86014 5.94531 7 5.94531C7.13986 5.94531 7.27399 6.00087 7.37289 6.09977C7.47179 6.19866 7.52734 6.3328 7.52734 6.47266V8.05469ZM9.63672 8.05469C9.63672 8.19455 9.58116 8.32868 9.48226 8.42758C9.38337 8.52647 9.24924 8.58203 9.10938 8.58203C8.96951 8.58203 8.83538 8.52647 8.73649 8.42758C8.63759 8.32868 8.58203 8.19455 8.58203 8.05469V5.94531C8.58203 5.80545 8.63759 5.67132 8.73649 5.57242C8.83538 5.47353 8.96951 5.41797 9.10938 5.41797C9.24924 5.41797 9.38337 5.47353 9.48226 5.57242C9.58116 5.67132 9.63672 5.80545 9.63672 5.94531V8.05469ZM1.19922 2.78125V1.72656H12.8008V2.78125H1.19922Z" fill="white"/>
</svg>
