<svg width="40" height="40" viewBox="0 0 40 40" fill="none" xmlns="http://www.w3.org/2000/svg">
<g clip-path="url(#clip0_474_31)">
<path d="M11.1665 19.9999C11.1727 21.847 11.4041 23.6865 11.8554 25.4777H19.0554V14.9443H11.7554C11.3713 16.6023 11.1738 18.298 11.1665 19.9999Z" fill="#FE152B"/>
<path d="M20.9443 14.9443V25.4777H28.1443C28.6144 23.6888 28.8644 21.8493 28.8888 19.9999C28.8851 18.2984 28.6914 16.6027 28.311 14.9443H20.9443Z" fill="#FE152B"/>
<path d="M19.9997 2.22217C16.4836 2.22217 13.0464 3.26482 10.1229 5.21826C7.19936 7.17171 4.92074 9.94822 3.57518 13.1967C2.22963 16.4451 1.87757 20.0197 2.56353 23.4682C3.24949 26.9168 4.94266 30.0845 7.42892 32.5707C9.91519 35.057 13.0829 36.7502 16.5314 37.4361C19.98 38.1221 23.5545 37.77 26.803 36.4245C30.0514 35.0789 32.8279 32.8003 34.7814 29.8768C36.7348 26.9532 37.7775 23.5161 37.7775 19.9999C37.7775 15.285 35.9045 10.7631 32.5705 7.42916C29.2365 4.09518 24.7147 2.22217 19.9997 2.22217ZM33.5775 27.4555H29.5553C28.7948 29.8364 27.6703 32.0852 26.2219 34.1222C25.1531 34.588 24.0348 34.9309 22.8886 35.1444C24.9414 32.9139 26.5212 30.2908 27.533 27.4333H20.9553V35.3777H19.0775V27.4555H12.4664C13.4768 30.317 15.0568 32.9439 17.1108 35.1777C15.9882 34.9666 14.8926 34.6312 13.8442 34.1777C12.3906 32.1237 11.266 29.8558 10.5108 27.4555H6.42193C6.06698 26.808 5.75878 26.1359 5.49971 25.4444H9.94415C9.5277 23.6592 9.31155 21.8331 9.29971 19.9999C9.30032 18.3008 9.47908 16.6063 9.83304 14.9444H5.2886C5.52226 14.2549 5.80445 13.5829 6.13304 12.9333H10.3664C11.1607 10.2878 12.3926 7.794 14.0108 5.5555C15.037 5.13029 16.1062 4.81736 17.1997 4.62217C14.9893 6.99444 13.3212 9.81894 12.3108 12.8999H19.0775V4.44439H20.9553V12.9333H27.7219C26.7134 9.85721 25.0492 7.03671 22.8442 4.66661C23.9359 4.84772 25.005 5.14573 26.033 5.5555C27.6419 7.77783 28.8698 10.2524 29.6664 12.8777H33.8553C34.1838 13.5273 34.466 14.1994 34.6997 14.8888H30.1886C30.5502 16.5685 30.7327 18.2818 30.733 19.9999C30.7273 21.8438 30.5149 23.6812 30.0997 25.4777H34.5442C34.2692 26.1591 33.9462 26.82 33.5775 27.4555Z" fill="#FE152B"/>
</g>
<defs>
<clipPath id="clip0_474_31">
<rect width="40" height="40" fill="white"/>
</clipPath>
</defs>
</svg>
